<?xml version="1.0" encoding="UTF-8" standalone="no"?>
<!-- Created with Inkscape (http://www.inkscape.org/) -->

<svg
   width="500mm"
   height="500mm"
   viewBox="0 0 500 500"
   version="1.1"
   id="svg1"
   inkscape:version="1.4 (e7c3feb100, 2024-10-09)"
   sodipodi:docname="simbl-logo.svg"
   xmlns:inkscape="http://www.inkscape.org/namespaces/inkscape"
   xmlns:sodipodi="http://sodipodi.sourceforge.net/DTD/sodipodi-0.dtd"
   xmlns="http://www.w3.org/2000/svg"
   xmlns:svg="http://www.w3.org/2000/svg">
  <sodipodi:namedview
     id="namedview1"
     pagecolor="#505050"
     bordercolor="#ffffff"
     borderopacity="1"
     inkscape:showpageshadow="0"
     inkscape:pageopacity="0"
     inkscape:pagecheckerboard="1"
     inkscape:deskcolor="#505050"
     inkscape:document-units="mm"
     inkscape:zoom="0.16"
     inkscape:cx="-1509.375"
     inkscape:cy="1684.375"
     inkscape:window-width="2516"
     inkscape:window-height="1359"
     inkscape:window-x="0"
     inkscape:window-y="0"
     inkscape:window-maximized="1"
     inkscape:current-layer="layer1">
    <inkscape:page
       x="0"
       y="0"
       width="500"
       height="500"
       id="page2"
       margin="0"
       bleed="0" />
  </sodipodi:namedview>
  <defs
     id="defs1" />
  <g
     inkscape:label="Layer 1"
     inkscape:groupmode="layer"
     id="layer1">
    <rect
       style="fill:#000000;stroke-width:0.501952"
       id="rect1"
       width="469.91446"
       height="469.91446"
       x="15.04277"
       y="15.04277"
       ry="39" />
    <g
       id="g33"
       transform="matrix(1.1402556,0,0,1.1402556,-35.0639,-35.063899)">
      <g
         id="g34">
        <path
           style="fill:#ffffff;fill-opacity:1;stroke-width:0.264583"
           id="path32"
           d="m 230.64461,339.19925 c 1.6e-4,0.0148 0.01,0.033 5.3e-4,0.0446 -0.0265,0.0327 -0.23191,0.18542 -0.25529,0.20256 -0.0202,0.0148 -0.27221,0.19529 -0.29665,0.2073 -0.0325,0.0159 -0.0707,0.0159 -0.10608,0.0238 -0.13898,0.0602 -0.13132,0.0526 -0.27498,0.13594 -0.0452,0.0262 -0.0851,0.0621 -0.13312,0.0828 -0.0331,0.0143 -0.0724,0.007 -0.10617,0.0201 -0.10094,0.0378 -0.17704,0.10337 -0.26281,0.16602 -0.0736,0.0124 -0.0937,-0.12813 -0.11114,-0.13197 -0.0517,-0.0114 -0.20374,0.14542 -0.20853,0.14867 -0.0177,0.0119 -0.0414,0.0109 -0.0621,0.0164 -0.0287,-0.0384 -0.0428,-0.0445 -0.036,-0.10194 0.004,-0.0322 0.0553,-0.0773 0.0272,-0.0936 -0.03,-0.0172 -0.0528,0.0468 -0.0847,0.0604 -0.01,0.004 -0.0197,-0.008 -0.0296,-0.0114 -0.0362,0.0293 -0.0723,0.0587 -0.10848,0.088 -0.054,0.0491 -0.0759,-0.0725 -0.12151,-0.0633 -0.0452,0.009 -0.0779,0.0503 -0.12048,0.0679 -0.2277,0.0937 0.0981,-0.12343 -0.22149,0.11978 -0.0273,0.01 -0.0531,0.0262 -0.0819,0.0288 -0.0171,0.003 -0.0336,-0.0257 -0.0486,-0.0172 -0.0565,0.0315 -0.0947,0.0884 -0.14707,0.12642 -0.0196,0.0143 -0.0483,0.0132 -0.0669,0.0288 -0.14439,0.12031 -0.0474,0.11859 -0.13597,0.11293 -0.0263,0.0288 -0.0541,0.0563 -0.0789,0.0864 -0.0518,0.0627 -0.0966,0.13132 -0.15101,0.19185 -0.01,0.0111 -0.0266,0.0138 -0.04,0.0206 -0.0188,0.0222 -0.0387,0.0432 -0.0563,0.0663 -0.0435,0.0572 -0.0798,0.11996 -0.12669,0.17436 -0.004,0.005 -0.011,-0.006 -0.0166,-0.008 -0.009,0.0101 -0.0278,0.0435 -0.0283,0.0298 -0.004,-0.12015 0.11993,-0.0972 -0.062,0.0254 -0.0122,0.008 0.0153,-0.0378 0.002,-0.0441 -0.0131,-0.006 -0.0283,0.0442 -0.0317,0.03 -0.006,-0.0238 0.0147,-0.0469 0.0221,-0.0703 -0.0849,0.0558 -0.11195,0.16036 -0.18131,0.22852 -0.009,0.008 0.002,-0.0241 0.003,-0.0359 -0.011,0.0111 -0.0234,0.0212 -0.0331,0.0337 -0.0397,0.0505 -0.0715,0.10734 -0.11506,0.15454 -0.005,0.005 -0.01,-0.01 -0.0144,-0.0143 -0.0343,0.0443 -0.0686,0.0886 -0.10283,0.1329 0.001,-0.014 0.014,-0.0517 0.004,-0.0421 -0.0389,0.0362 -0.0652,0.084 -0.0955,0.12768 -0.0177,0.0254 -0.0175,0.0802 -0.0486,0.0796 -0.0339,0 0.18153,-0.27656 -0.0405,0.0233 -0.11923,0.1956 0.0191,-0.0243 -0.007,-0.0114 -0.0374,0.0183 -0.0525,0.0646 -0.0762,0.0988 -0.0434,0.0627 -0.0832,0.12771 -0.1248,0.19158 0,0 25.58475,15.17857 25.58475,15.17857 v 0 c -0.0236,0.0398 -0.0487,0.0789 -0.0709,0.11954 -0.005,0.01 -0.0193,0.0409 -0.0121,0.0321 0.12465,-0.15206 0.0427,-0.13211 0.12549,-0.14676 -0.0431,0.10461 -0.003,0 0.0853,-0.10338 0.004,-0.004 0.0124,0.007 0.0106,0.0124 -0.008,0.0241 -0.0548,0.0854 -0.0378,0.0664 0.0273,-0.0306 0.0416,-0.0713 0.0692,-0.10152 0.0172,-0.0188 -0.0249,0.0444 -0.0373,0.0666 0.1423,-0.18505 0.0141,-0.03 0.0202,0.007 0.003,0.0188 0.0356,-0.0156 0.0493,-0.0287 0.03,-0.0286 0.0449,-0.0734 0.0804,-0.0949 0.0328,-0.0198 -0.0549,0.15243 -0.0324,0.11039 0.0346,-0.0408 0.0693,-0.0815 0.1039,-0.12232 0.015,-0.009 0.033,-0.0148 0.0451,-0.0276 0.0286,-0.0301 0.0455,-0.0702 0.0752,-0.0992 0.0104,-0.0103 -0.0258,0.0516 -0.0157,0.041 0.2208,-0.23239 0.0264,-0.0737 0.1532,-0.17328 0.0182,-0.0241 0.0548,-0.10231 0.0547,-0.0721 -1.4e-4,0.0398 -0.0443,0.0676 -0.0548,0.10602 -0.006,0.0227 0.12011,-0.0183 0.0634,-0.0308 -0.0603,0.19077 -0.0896,0.0735 -0.0572,0.17026 0.0197,-0.0151 0.0378,-0.0574 0.0592,-0.0449 0.0207,0.0122 -0.0197,0.0463 -0.0162,0.07 10e-4,0.009 0.0277,-0.0177 0.0253,-0.009 -0.0321,0.1171 -0.0974,0.10147 0.0229,0.0351 0.0128,-0.007 0.0284,-0.007 0.0426,-0.0103 -0.003,0.123 -0.0208,0.0298 0.0526,0.0483 0.015,0.004 0.0149,0.038 0.0301,0.0353 0.0408,-0.007 0.072,-0.0411 0.10875,-0.0602 0.13632,-0.0711 0.10339,-0.055 0.23013,-0.0996 0.0556,0.10192 -0.0104,0.0204 0.13145,0.01 0.0159,0 0.0228,0.0369 0.0371,0.03 0.13237,-0.0645 0.21441,-0.20971 0.32886,-0.29732 0.17272,-0.10906 -0.0376,0.11954 0.0924,0.0167 0.11396,-0.0902 0.1898,-0.22741 0.31431,-0.30707 0.0399,0.0536 0.088,-0.0289 0.12684,-0.0447 0.0533,-0.0217 0.16649,0.0424 0.20968,-0.0145 0.0381,-0.0154 0.0735,-0.0423 0.11444,-0.0459 0.12112,-0.0108 0.35762,0.34806 0.4881,0.23133 z"
           transform="translate(-45.018211,11.400716)" />
        <path
           style="fill:#ffffff;fill-opacity:1;stroke-width:0.264583"
           id="path30"
           d="m 97.88545,380.92804 c 19.54238,-10.47287 39.06084,-20.98336 58.43526,-31.7669 21.22859,-12.23285 42.75688,-24.11688 62.6909,-38.42814 12.51447,-8.98453 15.84796,-12.14305 27.50862,-21.92001 15.4695,-13.76545 28.81596,-29.7358 38.76686,-47.9403 5.63972,-10.31744 6.97997,-14.68056 11.26021,-25.51953 7.98042,-22.94092 11.27427,-46.9864 14.21832,-70.97057 1.87803,-11.88207 1.74749,-24.07425 4.42949,-35.82905 6.99275,-7.3606 1.65502,-1.44486 -25.37116,-12.82562 -0.73022,-0.307499 0.95478,1.284671 1.25854,2.016463 2.29206,5.521987 3.42138,11.812617 4.87471,17.573577 5.35517,21.33753 10.57916,42.70835 15.61849,64.1228 5.0641,21.88794 9.83073,43.82698 12.70431,66.11853 2.06494,15.22282 2.21845,30.07036 -0.80288,45.13589 -3.24826,13.98159 -9.316,27.0056 -16.3608,39.43075 -6.014,10.71536 -14.26739,19.41555 -23.92428,26.85724 -8.40383,6.70396 -18.08385,10.9822 -28.07216,14.65784 -5.98279,2.32622 -12.2691,3.26313 -18.63508,3.62445 -5.11159,0.28636 -10.07652,-1.3257 -14.89827,-2.83877 -6.72609,-2.33262 -12.93413,-5.88849 -19.09537,-9.40231 2.21809,1.4501 -8.20979,-4.4975 -6.18203,-3.3288 7.49748,4.32106 29.95207,17.34835 22.51373,12.92624 -9.20824,-5.47433 -18.58952,-10.6531 -27.82393,-16.08317 -7.59852,-4.46813 15.25062,8.84499 22.91611,13.19723 0.71132,0.40388 -1.36626,-0.89982 -2.0494,-1.34972 -0.6147,-0.47257 -6.47011,-4.65746 -6.6058,-4.49432 -0.24373,0.29308 -0.13489,0.75031 -0.20233,1.12549 0.52542,0.1648 1.03283,0.40552 1.57627,0.49445 5.80155,0.94935 11.64715,1.58303 17.43945,2.6934 5.82993,1.11758 16.99124,3.65006 22.4356,4.86037 32.70948,7.87488 65.51848,15.22627 98.41791,22.2594 25.29649,4.82259 50.34034,11.15705 75.84971,14.8005 2.02565,0.1256 4.0513,0.25117 6.07695,0.37677 0,0 -23.47182,-17.28195 -23.47182,-17.28195 v 0 c -1.9019,-0.12404 -3.80381,-0.24808 -5.70571,-0.37209 -25.10594,-3.40838 -49.789,-9.37691 -74.65288,-14.1492 -33.11128,-6.99987 -66.06923,-14.57835 -98.92655,-22.69148 -7.40574,-1.70384 -15.54294,-3.63898 -23.03849,-5.14231 -4.8407,-0.97087 -13.48531,-3.10854 -18.59604,-2.59366 -0.94071,0.0948 -1.79974,0.58015 -2.69961,0.87021 -0.55499,0.76814 -1.29824,1.43063 -1.66497,2.30444 -1.12774,2.68717 5.04117,4.73628 6.21874,6.01086 10.30036,8.4224 0.56041,0.63381 29.6723,17.68779 7.55159,4.42378 -30.28948,-17.55253 -22.72202,-13.15593 9.33173,5.42166 18.66159,10.84662 28.01487,16.23103 2.00986,1.15702 4.11246,2.14786 6.11723,3.31419 6.28189,3.49483 12.68007,6.90785 19.60675,8.95184 5.09731,1.40007 10.25001,2.68475 15.58502,2.00752 6.48065,-0.64272 12.83091,-1.96199 18.87098,-4.47823 10.12759,-3.93377 19.85767,-8.70495 28.44393,-15.47397 9.92711,-7.90183 18.0644,-16.80358 24.2957,-27.96606 7.13095,-12.70169 13.46182,-25.94946 16.84811,-40.19378 0.47813,-2.29407 1.0644,-4.56822 1.43434,-6.88216 2.08423,-13.03752 0.97261,-26.25968 -0.55023,-39.28497 -2.95381,-22.44494 -7.90803,-44.49802 -12.9535,-66.55442 -4.91916,-21.28758 -10.01125,-42.5343 -14.94395,-63.81871 -1.32779,-5.83753 -2.9318,-11.65608 -4.15888,-17.51315 -0.22217,-1.06049 0.43775,-2.64602 -0.48485,-3.21416 -26.8591,-16.539838 -22.78692,-23.022397 -28.33521,-12.515422 -1.96779,12.102742 -1.98427,24.407582 -3.5047,36.565342 -2.64689,23.83362 -5.78292,47.70657 -13.48782,70.54164 -4.17401,10.77026 -5.39552,14.90864 -10.92973,25.16097 -9.70272,17.97465 -22.75771,33.7785 -37.96702,47.36002 -11.64232,9.8496 -14.64045,12.77491 -27.195,21.78162 -19.91126,14.2844 -41.41445,26.13734 -62.7795,38.05624 -19.79438,10.61664 -39.67292,21.11454 -60.04629,30.58647 z" />
      </g>
      <path
         style="fill:#ffffff;fill-opacity:1;stroke-width:0.264583"
         id="path31"
         d="m 237.57377,365.29647 c -0.0134,0.0249 -0.0195,0.0557 -0.0403,0.0749 -0.0732,0.0674 -0.25319,0.0646 -0.34892,0.0777 -0.0448,0.006 -0.0905,0.0298 -0.13446,0.019 -0.0356,-0.009 -0.0551,-0.0483 -0.0826,-0.0725 -0.10563,-0.0269 -0.21812,-0.0592 -0.32864,-0.0545 -0.0365,0.003 -0.0717,0.0135 -0.10786,0.0185 -0.17697,0.0251 -0.0353,-0.006 -0.20097,0.0358 -0.1593,0.0233 -0.32086,0.0198 -0.48137,0.0172 -0.10992,-0.003 -0.21984,-0.005 -0.32977,-0.006 -0.067,-0.005 -0.13201,-1.3e-4 -0.1976,0.009 -0.0181,0.003 -0.0394,-0.006 -0.0546,0.004 -0.0547,0.0362 -0.0984,0.0867 -0.14754,0.12999 -0.14776,0.10364 -0.19519,0.077 -0.32197,-0.0151 -0.13231,-0.10607 -0.19089,0.30919 -0.36497,0.1112 -0.0107,-0.0177 -0.10817,-0.11358 -0.1264,-0.10154 -0.16654,0.16002 -0.0877,0.1011 -0.22503,0.19124 -0.0303,0.004 -0.0598,0.0172 -0.0836,-0.0122 -0.007,-0.009 -0.002,-0.0243 -0.009,-0.0343 -0.023,-0.0361 -0.0722,-0.0504 -0.10903,-0.062 -0.083,0.0785 -0.17037,0.15348 -0.2915,0.14618 -0.0478,-0.003 -0.10998,-0.0376 -0.15491,-0.0518 -0.1254,-0.0405 -0.25225,-0.0751 -0.3825,-0.0955 -0.0185,-0.003 -0.037,-0.005 -0.0556,-0.006 -0.002,-1.9e-4 -0.10491,-0.008 -0.10764,-0.006 -0.0651,0.0441 -0.11656,0.10562 -0.17571,0.15745 -0.0742,0.065 -0.0423,0.0656 -0.093,0.0558 -0.0227,0.0288 -0.0454,0.0575 -0.068,0.0863 -0.01,0.004 -0.0212,0.006 -0.0293,0.0124 -0.0252,0.0209 -0.0416,0.052 -0.0693,0.0692 -0.0223,0.0138 -0.0522,0.01 -0.0759,0.0209 -0.20555,0.0992 0.0125,0.0439 -0.2256,0.0864 -0.32321,0.0148 -0.64767,-0.0378 -0.96381,-0.1011 -0.17885,-0.0423 -0.35876,-0.0798 -0.53844,-0.11848 -0.0328,-0.007 -0.0775,0.006 -0.0985,-0.0206 -0.0228,-0.0286 -0.004,-0.0731 -0.005,-0.10959 -0.0152,-0.0198 -0.0236,-0.0475 -0.0455,-0.0596 -0.0203,-0.0114 -0.0463,-0.004 -0.0695,-0.004 -0.12466,-0.003 -0.23573,0.0518 -0.3529,0.089 -0.19654,0.0895 -0.41276,0.0931 -0.62476,0.0923 -0.22438,-0.005 -0.44871,-0.0106 -0.67311,-0.014 -0.0628,-0.0106 -0.2751,0.0172 -0.32225,-0.0127 -0.0275,-0.0175 -0.0213,-0.0636 -0.0434,-0.0874 -0.0442,-0.0476 -0.10928,-0.0413 -0.16571,-0.0462 -0.21846,0.008 -0.43118,0.063 -0.64709,0.088 -0.0383,0.003 -0.0779,0.0167 -0.11493,0.007 -0.31885,-0.0874 0.25512,-0.0362 -0.16241,-0.0817 -0.0796,-0.009 -0.16197,0.0127 -0.24017,0.0196 -0.0463,0.004 -0.0928,0.005 -0.13926,0.007 -0.0912,-0.0119 -0.18192,0.041 -0.27288,0.0308 -0.0361,-0.004 -0.065,-0.034 -0.10031,-0.0428 -0.13805,-0.0343 -0.28293,0.003 -0.4193,0.0243 -0.0543,0.008 -0.10808,0.0225 -0.16299,0.0251 -0.0462,0.003 -0.0921,-0.009 -0.13828,-0.0101 -0.12528,-0.003 -0.25093,0.0159 -0.37592,0.007 -0.0623,-0.005 -0.12286,-0.0225 -0.1843,-0.0336 -0.0687,-0.005 -0.13736,-0.0101 -0.20603,-0.0151 -0.20089,-0.0764 -0.415,-0.0476 -0.62262,-0.0685 -0.0667,-0.007 -0.13116,-0.0284 -0.19764,-0.0367 -0.38383,-0.0483 -0.0468,0.0317 -0.41236,-0.0707 -0.0587,-0.0159 -0.11667,-0.035 -0.17622,-0.0474 -0.0698,-0.0145 -0.14134,-0.0193 -0.21124,-0.0332 -0.53588,-0.10719 0.14763,0.0151 -0.3714,-0.10121 -0.27537,-0.0442 -0.1421,-0.018 -0.40009,-0.0775 -0.28025,-0.10234 -0.0809,-0.0418 -0.38536,-0.1011 -0.0595,-0.0116 -0.11753,-0.0303 -0.17745,-0.0394 -0.0665,-0.0101 -0.13472,-0.006 -0.20099,-0.0177 -0.54932,-0.0952 0.21612,-0.009 -0.36863,-0.0667 -0.21285,-0.0618 -0.11762,-0.0456 -0.34615,-0.0637 -0.0638,-0.005 -0.1276,-0.0153 -0.1916,-0.0135 -0.0607,0.003 -0.11988,0.0217 -0.18054,0.0236 -0.0472,0.003 -0.094,-0.009 -0.141,-0.0135 -0.0546,0.004 -0.10913,0.008 -0.16369,0.013 -0.0612,0.003 -0.1227,0.003 -0.18357,0.009 -0.0602,0.007 -0.11904,0.0227 -0.17891,0.0321 -0.12698,0.0199 -0.25391,0.0403 -0.38149,0.0556 -0.14823,0.0177 -0.27143,0.0206 -0.4207,0.0272 -0.44825,0.0459 -0.89816,0.0462 -1.34799,0.0589 -0.45283,0.0325 -0.001,0.006 -0.48334,0.0159 -0.0812,0.003 -0.16228,0.0101 -0.24353,0.0111 -0.0874,0 -0.17485,-0.005 -0.26229,-0.005 -0.61976,0.004 0.13403,0.0177 -0.51521,0.003 -0.17089,-0.0188 -0.34397,0.0119 -0.51489,-0.004 -0.0814,-0.007 -0.16163,-0.0254 -0.24102,-0.0446 -0.0769,-0.0188 -0.15071,-0.0487 -0.22716,-0.0692 -0.35556,-0.0954 -0.13483,-0.003 -0.42826,-0.15034 -0.22076,-0.0661 -0.21592,-0.0569 -0.42393,-0.14925 -0.0635,-0.0282 -0.12229,-0.0673 -0.18779,-0.0905 -0.0666,-0.0236 -0.13748,-0.0323 -0.20607,-0.049 -0.22125,-0.0541 -0.1343,-0.0288 -0.34563,-0.10658 -0.13075,0.0225 -0.2411,-0.0589 -0.36395,-0.0744 -0.0623,-0.008 -0.12577,0.009 -0.1883,0.003 -0.0567,-0.005 -0.11071,-0.0278 -0.16718,-0.0349 -0.32089,-0.0408 -0.0617,0.0367 -0.35273,-0.0709 -0.059,-0.007 -0.12044,-0.003 -0.17693,-0.0196 -0.38263,-0.12287 0.0903,-0.0578 -0.3016,-0.12753 -0.0521,-0.009 -0.10529,-0.0116 -0.15817,-0.0124 -0.0518,0 -0.10502,0.0212 -0.15514,0.008 -0.0389,-0.0101 -0.064,-0.0489 -0.0959,-0.0733 -0.0372,-0.007 -0.078,-0.005 -0.11167,-0.0222 -0.0276,-0.0143 -0.0354,-0.0546 -0.0633,-0.0682 -0.16267,-0.0789 -0.0439,0.0575 -0.22319,0.006 -0.0315,-0.009 -0.0447,-0.048 -0.067,-0.072 -0.0335,-0.004 -0.067,-0.008 -0.10047,-0.0114 -0.0193,-0.0196 -0.0322,-0.0489 -0.0579,-0.0585 -0.0922,-0.0345 -0.13395,0.0311 -0.2265,0.0241 -0.11544,-0.009 -0.0501,-0.081 -0.12082,-0.14173 -0.0254,-0.0217 -0.0651,-0.0154 -0.0976,-0.0233 -0.0409,-0.066 -0.0545,-0.12464 -0.14754,-0.1311 -0.0421,-0.003 -0.0814,0.0277 -0.12358,0.0273 -0.1533,-0.003 0.0114,-0.0473 -0.1131,-0.086 -0.0337,-0.0106 -0.0702,0.007 -0.10537,0.01 -0.11314,-0.12928 0.002,-0.0334 -0.17225,-0.0669 -0.027,-0.005 -0.0467,-0.0305 -0.073,-0.0384 -0.035,-0.0106 -0.0773,0.003 -0.10845,-0.0161 -0.0241,-0.0148 -0.0814,-0.13644 -0.0947,-0.16279 -0.0913,-0.0322 -0.16043,0.0588 -0.24413,0.0587 -0.0697,-5e-5 -0.0795,-0.0869 -0.1237,-0.11467 -0.0848,-0.0533 -0.13583,-0.0169 -0.2249,0.006 -0.067,-0.0225 -0.10418,-0.0419 -0.18072,-0.0322 -0.0433,0.006 -0.0821,0.0356 -0.12568,0.0364 -0.0247,0 -0.0418,-0.0302 -0.0663,-0.0329 -0.18272,-0.0204 -0.0384,0.0619 -0.16776,-0.0314 -0.0751,0.0161 -0.15441,-0.0106 -0.22937,0.005 -0.0453,0.009 -0.0833,0.0462 -0.1294,0.0496 -0.0275,0.003 -0.0481,-0.0292 -0.0751,-0.0344 -0.17856,-0.035 -0.0467,0.0493 -0.17829,-0.0594 -0.0737,-0.0293 -0.16058,0.003 -0.23411,-0.0246 -0.0294,-0.0108 -0.042,-0.05 -0.0711,-0.0618 -0.25429,-0.103 0.057,0.0904 -0.22644,0.009 -0.0315,-0.009 -0.0443,-0.0483 -0.0664,-0.0725 -0.19609,-0.0995 -0.40589,-0.0372 -0.6044,0.0206 -0.0124,-0.057 -0.14003,0.0961 -0.15744,0.0444 -0.0144,-0.0429 0.0348,-0.0853 0.0373,-0.13049 0.002,-0.0433 -0.154,-0.005 -0.16854,-0.003 -0.0273,0.006 -0.0555,0.01 -0.0819,0.0191 -0.0555,0.0201 -0.10298,0.0592 -0.15863,0.079 -0.0764,0.0271 -0.16493,0.039 -0.24512,0.0454 -0.16257,0.0356 -0.3273,0.0285 -0.49217,0.0373 -0.038,-0.0132 -0.25075,0.01 -0.27044,-0.0111 -0.0257,-0.0273 -0.004,-0.0766 -0.0191,-0.11081 -0.0208,-0.0466 -0.086,-0.0533 -0.12478,-0.0642 -0.0361,-0.0574 -0.13787,0.0415 -0.17367,-0.004 -0.0231,-0.0293 0.0113,-0.0757 0.002,-0.11197 -0.0219,-0.0885 -0.1395,-0.049 -0.19262,-0.0378 -0.15133,0.0525 -0.2981,0.11533 -0.45466,0.15105 -0.0907,0.0185 -0.18327,0.022 -0.27551,0.0241 0,0 24.03943,17.46073 24.03943,17.46073 v 0 c 0.0804,0.003 0.16214,0.003 0.23991,0.0257 0.0915,0.0375 0.1366,0.10335 0.17099,0.19487 0.0965,0.12816 0.17576,-0.0196 0.27373,-0.0624 0.031,-0.0135 0.0645,0.0554 0.0985,0.0241 0.059,-0.003 0.12388,-0.003 0.17843,-0.0299 0.0494,-0.0257 0.0851,-0.0735 0.13479,-0.0985 0.0601,-0.0303 0.17491,0.0124 0.2401,-0.0114 0.17755,0.008 0.35535,0.003 0.53051,0.0389 0.15988,0.0206 0.24098,0.0662 0.35163,0.18185 0.0484,0.0334 0.12441,0.0817 0.18764,0.049 0.15256,-0.079 0.11041,-0.16922 0.20043,-0.0621 0.0627,0.10245 0.0756,0.17322 0.21975,0.1547 0.0388,-0.0114 0.0761,-0.0378 0.11642,-0.0343 0.0586,0.005 0.0822,0.10761 0.1576,0.0793 0.041,0 0.08,-0.0222 0.12093,-0.022 0.0597,2.4e-4 0.1095,0.0623 0.17218,0.0489 0.30465,-0.0388 -0.004,-0.0193 0.23684,0.0135 0.0421,0.006 0.0881,-0.0161 0.12758,0 0.0318,0.0127 0.0411,0.0555 0.0665,0.0785 0.0183,0.0167 0.13715,0.0774 0.14837,0.0833 0.31514,0 -0.0277,-0.0235 0.20027,0.0518 0.0342,0.0114 0.0761,-0.009 0.1077,0.008 0.0249,0.0135 0.0234,0.0528 0.0426,0.0737 0.0397,0.0431 0.10535,0.0494 0.15676,0.0625 0.0673,0.146 0.0675,0.10554 0.22542,0.10322 0.0319,0 0.0705,-0.0169 0.0957,0.003 0.028,0.0217 0.0191,0.069 0.0365,0.0999 0.0148,0.0262 0.0393,0.0458 0.0589,0.0687 0.0404,-0.005 0.0812,-0.008 0.12118,-0.0156 0.036,-0.007 0.0696,-0.0299 0.1062,-0.0283 0.0246,0 0.0412,0.0283 0.0647,0.0357 0.0345,0.0109 0.0739,0.004 0.10708,0.0185 0.0262,0.0114 0.037,0.0494 0.0648,0.0562 0.0368,0.009 0.0754,-0.008 0.1131,-0.0124 0.0247,0.0209 0.0432,0.0532 0.0741,0.0626 0.0601,0.0183 0.16098,-0.0251 0.22192,0.0161 0.0219,0.0148 0.0142,0.0548 0.0349,0.0713 0.0427,0.0339 0.16325,-0.0167 0.18572,-0.023 0.0289,0.009 0.0565,0.0301 0.0865,0.0271 0.12521,-0.0124 0.13289,-0.0913 0.26065,-0.0487 0.15937,0.0532 -0.0304,0.0796 0.15169,0.10335 0.0416,0.005 0.0835,-0.009 0.12524,-0.0138 0.29303,0.0959 -0.19421,-0.047 0.19676,-0.006 0.0293,0.003 0.0451,0.0389 0.0716,0.052 0.11589,0.0575 0.0793,0.0106 0.21673,0 0.0278,-0.003 0.0553,0.008 0.0829,0.0116 0.0363,-0.0122 0.0705,-0.0377 0.10882,-0.0369 0.0271,0 0.0459,0.0291 0.0705,0.0405 0.0257,0.0119 0.0521,0.0238 0.0799,0.0293 0.19366,0.039 0.001,-0.0251 0.23269,-0.022 0.045,0 0.0873,0.0217 0.131,0.0326 0.2676,-0.005 0.042,-0.0167 0.29909,0.043 0.0562,0.013 0.11549,0.0119 0.17093,0.028 0.0525,0.0154 0.0977,0.0507 0.15039,0.0654 0.0529,0.0148 0.10881,0.0146 0.16321,0.022 0.0489,0.0145 0.0978,0.0293 0.14669,0.0439 0.0604,0.005 0.12105,0.008 0.18125,0.0151 0.11143,0.0135 0.22065,0.0478 0.33285,0.0509 0.19875,0.005 0.39812,-0.0494 0.59764,-0.0309 0.1567,-0.0209 0.31402,-0.037 0.47065,-0.0584 0.14366,-0.0196 0.36532,-0.0626 0.5103,-0.0721 0.16783,-0.0109 0.33675,0.01 0.50457,-0.004 0.57148,-0.0154 -0.0902,-0.003 0.52039,0.003 0.0831,0 0.16625,-0.006 0.24939,-0.005 0.0914,0 0.18254,0.009 0.2739,0.0109 0.53373,0.01 -0.0423,-0.0183 0.52583,0.0153 0.48601,0.0124 0.97232,0.0127 1.45643,0.0644 0.16463,0.0114 0.26645,0.0148 0.43016,0.0404 0.20715,0.0323 0.40579,0.0867 0.60801,0.1392 0.0544,0.014 0.1096,0.0251 0.1644,0.0376 0.23933,0.0628 0.11806,0.0393 0.3638,0.0705 0.046,0.0116 0.0858,0.0412 0.13058,0.0569 0.13393,0.047 0.28267,0.0746 0.42416,0.0753 0.43771,0.10911 -0.17582,-0.0355 0.31708,0.0505 0.0528,0.009 0.10257,0.0318 0.15505,0.0428 0.0611,0.0127 0.12361,0.0177 0.18512,0.0283 0.25791,0.0445 0.0623,0.0283 0.35379,0.0366 0.066,0.007 0.13222,0.0132 0.19803,0.0222 0.0592,0.008 0.11747,0.0228 0.17689,0.0291 0.0128,0.003 0.40832,0.0238 0.42653,0.0251 0.0636,0.005 0.12668,0.0167 0.19038,0.0209 0.0778,0.005 0.15592,0.006 0.23388,0.008 0.39212,-0.0196 0.017,-0.0122 0.40712,0.0135 0.0731,0.005 0.14673,-0.003 0.21975,0.004 0.21161,0.0172 0.42046,0.0795 0.63545,0.0473 0.29094,0.0225 0.14216,0.0175 0.4464,0.014 0.14612,0.008 0.28994,0.0413 0.43581,0.0532 0.0809,0.007 0.16251,0.003 0.24309,0.0122 0.0636,0.007 0.12544,0.0257 0.18815,0.0384 0.16657,0.0381 0.336,0.0902 0.50905,0.0804 0.0611,-0.003 0.1206,-0.0251 0.18179,-0.0257 0.0186,-1.6e-4 0.24364,0.0432 0.26563,0.0474 0.12656,0.0206 0.25602,0.0666 0.38427,0.0723 0.18831,0.008 0.0996,-0.0259 0.30761,-0.0505 0.0359,-0.004 0.072,0.006 0.10793,0.009 0.19827,0.0291 0.38922,0.0883 0.58211,0.14118 0.0877,0.008 0.12557,0.0209 0.21464,-0.0116 0.0515,-0.0188 0.095,-0.0559 0.14629,-0.0751 0.0899,-0.0337 0.1966,0.003 0.28867,-0.0127 0.20873,-0.003 0.41738,-0.01 0.62609,-0.0143 0.2332,0 0.46992,0.0124 0.68753,0.10486 0.0265,0.0119 0.0537,0.0222 0.0795,0.0358 0.0723,0.0376 0.1733,0.1275 0.26367,0.11247 0.0346,-0.006 0.0642,-0.0281 0.0964,-0.0422 0.048,-0.0324 0.0942,-0.0676 0.14404,-0.097 0.0169,-0.01 0.0369,-0.0135 0.0552,-0.0204 0.10584,-0.0414 0.21419,-0.0763 0.31567,-0.12737 0.20565,-0.0747 0.0264,-0.0159 0.27608,-0.076 0.25691,-0.0619 0.51391,-0.12579 0.77743,-0.15534 0.49197,-0.0555 -0.0809,-0.004 0.41213,-0.006 0.0616,-2.7e-4 0.12241,-0.0206 0.18402,-0.0185 0.0536,0.003 0.10449,0.0276 0.15806,0.0298 0.0512,0.003 0.10227,-0.0265 0.1527,-0.0172 0.0322,0.006 0.0524,0.0391 0.0787,0.0586 0.0315,-0.007 0.0626,-0.0269 0.0944,-0.0212 0.0165,0.003 0.0314,0.0268 0.0265,0.0429 -0.0164,0.0535 -0.0717,0.0907 -0.0842,0.14523 -0.002,0.009 0.14686,-0.0132 0.15678,-0.013 0.13312,-0.0233 0.26003,-0.0671 0.38649,-0.11409 0.19099,-0.0609 -0.0132,0.003 0.2042,-0.0605 0.0352,-0.0103 0.17399,-0.0766 0.21331,-0.0227 0.0175,0.0241 0.016,0.0573 0.024,0.0859 0.0286,-0.007 0.16967,-0.0405 0.19011,-0.0471 0.0928,-0.0299 0.17606,-0.0837 0.26666,-0.11742 0.0171,-0.006 0.0357,-0.008 0.0536,-0.0116 0.0877,0.14777 -0.113,-0.21077 -0.0184,0.15878 0.006,0.0222 0.0441,-0.0132 0.0657,-0.0212 0.0768,-0.028 0.14973,-0.0651 0.22087,-0.10512 0.0177,-0.0101 0.23307,-0.15399 0.22603,-0.064 -0.003,0.04 -0.0492,0.0777 -0.035,0.11526 0.009,0.023 0.0455,-0.0183 0.0682,-0.0273 0.0509,-0.0236 0.28209,-0.15664 0.32788,-0.13407 0.0137,0.007 0.0154,0.0265 0.0231,0.0396 -0.009,0.0392 -0.0392,0.0793 -0.027,0.11763 0.007,0.0209 0.0438,0.003 0.0656,0.004 0.0757,0.008 0.15037,0.0143 0.22684,0.009 0.10114,-0.003 0.20225,-0.004 0.30335,-0.007 0.10129,-0.003 0.20474,-0.006 0.30166,0.0287 0.0357,0.0188 0.0729,0.035 0.10828,0.0543 0.0188,0.0103 0.0349,0.0254 0.0547,0.0336 0.067,0.0274 0.15046,0.01 0.21919,0.0159 0.0409,-0.0153 0.0791,-0.0443 0.12275,-0.0459 0.0312,0 0.0572,0.0251 0.0855,0.0384 0.16053,0.075 0.31608,0.15243 0.44588,0.2776 z" />
      <path
         style="fill:#ffffff;fill-opacity:1;stroke-width:0.264583"
         id="path33"
         d="m 237.84049,362.99497 c -0.0301,0.0745 -0.0506,0.15359 -0.0903,0.22341 -0.16953,0.29827 -0.5838,0.58597 -0.87045,0.75721 -0.0961,0.0574 -0.19787,0.10494 -0.2968,0.1574 -0.31782,0.17219 -0.63339,0.34277 -0.96975,0.47636 -0.10794,0.0429 -0.2189,0.0779 -0.32666,0.12128 -0.42604,0.1846 -0.21504,0.0973 -0.6327,0.26258 -0.0978,0.0365 -0.19713,0.0693 -0.29345,0.10964 -0.0985,0.0413 -0.19306,0.0915 -0.29063,0.13496 -0.17925,0.0798 -0.36504,0.14452 -0.54407,0.2249 -0.22589,0.10139 -0.31419,0.15954 -0.52738,0.28265 -0.96349,0.44638 0.41701,-0.19962 -0.54641,0.27271 -0.0956,0.0469 -0.44958,0.19913 -0.55446,0.24395 -0.0879,0.0375 -0.17425,0.079 -0.26401,0.11173 -0.0783,0.0286 -0.15969,0.0481 -0.23953,0.0721 -0.2717,0.12123 -0.56524,0.17775 -0.84694,0.26913 -0.2491,0.0808 -0.0918,0.0587 -0.31038,0.0718 0,0 24.6322,15.98975 24.6322,15.98975 v 0 c 0.061,-0.10446 0.12324,-0.18468 0.19877,-0.2789 0.0276,-0.0344 0.0507,-0.0727 0.0803,-0.10541 0.10082,-0.11136 0.16056,-0.15034 0.27948,-0.24461 0.17504,-0.1551 0.34383,-0.28345 0.53953,-0.41214 0.0666,-0.0438 0.13155,-0.0907 0.20147,-0.12904 0.0794,-0.0436 0.16448,-0.0761 0.24565,-0.11633 0.0829,-0.0411 0.16441,-0.0852 0.24662,-0.1278 0.20603,-0.0811 0.32739,-0.12419 0.52496,-0.21971 0.17299,-0.0836 0.33973,-0.17973 0.5123,-0.26421 0.0823,-0.0403 0.16707,-0.0753 0.24892,-0.11636 0.087,-0.0437 0.17165,-0.0919 0.25747,-0.1379 0.418,-0.21606 0.0947,-0.0543 0.51565,-0.25059 0.20027,-0.0934 0.35268,-0.17762 0.56421,-0.24593 0.20221,-0.0653 0.40865,-0.0964 0.61673,-0.13481 0.10536,-0.013 0.20996,-0.0361 0.31609,-0.0392 0.35375,-0.0101 0.88784,0.12126 1.16684,0.34383 0.0785,0.0626 0.14027,0.14383 0.21041,0.21574 z" />
    </g>
  </g>
</svg>
